<?xml version="1.0" encoding="UTF-8" standalone="no"?>
<!-- Created with Inkscape (http://www.inkscape.org/) -->

<svg
   width="269.99609"
   height="217.47057"
   viewBox="0 0 71.436464 57.539086"
   version="1.1"
   id="svg5"
   xml:space="preserve"
   xmlns="http://www.w3.org/2000/svg"
   xmlns:svg="http://www.w3.org/2000/svg"><defs
     id="defs2" /><g
     id="layer1"
     transform="translate(-55.088022,-76.229929)"><g
       data-paper-data="{&quot;isPathIcon&quot;:true}"
       id="g3410"
       transform="matrix(0,-0.46427266,0.46427266,0,-11.296614,163.94681)"><path
         id="rect10390"
         style="opacity:1;fill:#000000;fill-opacity:1;stroke:none;stroke-width:0.434382;stroke-dasharray:none;stroke-opacity:1"
         d="m 79.839571,109.21194 c -0.838842,0 -1.514119,0.67582 -1.514119,1.51463 0,0.83885 0.675277,1.51412 1.514119,1.51412 h 4.236434 1.859318 c 0.838843,0 1.51412,0.67528 1.51412,1.51412 0,0.83885 -0.675277,1.51412 -1.51412,1.51412 H 79.263379 77.780265 75.59797 c -0.838846,0 -1.51412,0.67528 -1.51412,1.51412 0,0.83885 0.675274,1.51412 1.51412,1.51412 h 6.061645 0.711636 c 0.429786,0 1.062776,-0.2012 1.422386,-0.43653 3.77409,-2.46978 8.279771,-3.90894 13.117244,-3.90894 5.773649,0 11.075619,2.04914 15.223879,5.45548 l -4.32894,4.32894 c -3.02054,-2.31439 -6.79543,-3.69228 -10.894939,-3.69228 -7.461312,0 -13.854249,4.55797 -16.556613,11.04015 l 4.63796,1.22938 c 2.124833,-4.44918 6.668644,-7.53081 11.918653,-7.53081 7.278349,0 13.199709,5.92134 13.199709,13.19972 0,6.46819 -4.68063,11.8538 -10.830345,12.97491 V 155.76 c 8.786305,-1.16021 15.569075,-8.67479 15.569075,-17.77772 0,-4.09998 -1.37836,-7.87596 -3.69228,-10.8965 l 4.32738,-4.3279 c 2.93465,3.57396 4.86246,8.0033 5.33973,12.854 h 4.75165 c -1.20571,-14.77864 -13.57374,-26.39942 -28.663886,-26.39942 -0.01784,0 -0.03539,9.9e-4 -0.05323,0.001 v -0.002 z m -10.616923,6.05699 c -0.838845,0 -1.514119,0.67528 -1.514119,1.51412 0,0.83885 0.675274,1.51412 1.514119,1.51412 h 1.950785 c 0.838846,0 1.51412,-0.67527 1.51412,-1.51412 0,-0.83884 -0.675274,-1.51412 -1.51412,-1.51412 z m -4.068485,6.05648 c -0.838846,0 -1.51412,0.67527 -1.51412,1.51412 0,0.83885 0.675274,1.51412 1.51412,1.51412 h 0.942578 5.482869 0.990121 c 0.838845,0 1.514119,0.67527 1.514119,1.51412 0,0.83885 -0.675274,1.51464 -1.514119,1.51464 H 70.166777 67.61086 c -0.838844,0 -1.514119,0.67527 -1.514119,1.51412 0,0.83883 0.675275,1.51411 1.514119,1.51411 h 1.544092 1.241785 c 0.838843,0 1.514119,0.67528 1.514119,1.51412 0,0.83885 -0.675276,1.51412 -1.514119,1.51412 h -1.896525 -4.150651 -1.749764 c -0.838848,0 -1.51412,0.67528 -1.51412,1.51412 0,0.83885 0.675272,1.51412 1.51412,1.51412 h 0.316776 5.269963 0.244946 c 0.838847,0 1.514119,0.67527 1.514119,1.51412 0,0.83885 -0.675272,1.51412 -1.514119,1.51412 h -0.24908 -5.265829 -3.818372 c -0.838846,0 -1.514119,0.67527 -1.514119,1.51412 0,0.83885 0.675273,1.51412 1.514119,1.51412 h 3.818372 5.585706 2.484086 c 0.838847,0 1.514119,0.67527 1.514119,1.51412 0,0.83885 -0.675272,1.51464 -1.514119,1.51464 h -1.829863 -4.725293 c -0.838846,0 -1.514636,0.67527 -1.514636,1.51412 0,0.83883 0.67579,1.51411 1.514636,1.51411 h 5.736084 3.409611 c 0.838847,0 1.51412,0.67529 1.51412,1.51412 0,0.83885 -0.675273,1.51412 -1.51412,1.51412 h -2.006079 -8.654252 c -0.838846,0 -1.514119,0.67528 -1.514119,1.51412 0,0.83885 0.675273,1.51412 1.514119,1.51412 h 10.545093 3.845243 c 0.838847,0 1.51412,0.67527 1.51412,1.51412 0,0.83885 -0.675273,1.51412 -1.51412,1.51412 H 75.940068 73.04257 c -0.838847,0 -1.514119,0.67527 -1.514119,1.51412 0,0.83885 0.675272,1.51412 1.514119,1.51412 h 6.221326 6.671427 c 0.838847,0 1.51412,0.67579 1.51412,1.51464 0,0.83884 -0.675273,1.51412 -1.51412,1.51412 h -1.87017 -8.804631 c -0.838843,0 -1.514119,0.67527 -1.514119,1.51412 0,0.83881 0.675276,1.51412 1.514119,1.51412 h 21.598165 v -0.002 c 0.0175,4e-5 0.03469,0.002 0.05219,0.002 15.090623,0 27.457713,-11.6206 28.663883,-26.39943 h -4.75113 c -1.1941,12.14229 -11.46103,21.66121 -23.912753,21.66121 -12.450325,0 -22.718129,-9.51888 -23.912236,-21.66069 h 6.131925 c 1.058076,8.00911 7.400956,14.35033 15.411463,15.40836 v -4.80281 c -1.846218,-0.33657 -3.558916,-1.05977 -5.053438,-2.07894 l 4.478796,-4.52169 c 0.08488,0.0392 0.169835,0.0778 0.256315,0.11369 0.105854,0.0441 0.213253,0.0855 0.321427,0.12402 0.108176,0.039 0.21708,0.0746 0.327112,0.10801 0.110033,0.0334 0.220854,0.0641 0.33228,0.092 0.111425,0.0279 0.223595,0.0537 0.336413,0.076 0.112818,0.0223 0.226285,0.0422 0.340031,0.0589 0.113747,0.0167 0.227423,0.0308 0.342098,0.0424 0.114211,0.0112 0.228974,0.0192 0.343648,0.0248 0.114676,0.006 0.22949,0.009 0.344166,0.009 0.115138,0 0.230059,-0.003 0.345198,-0.009 0.114675,-0.006 0.229437,-0.0137 0.343648,-0.0248 0.114211,-0.0116 0.228352,-0.0257 0.342098,-0.0424 0.113747,-0.0167 0.226644,-0.0366 0.338998,-0.0589 0.112818,-0.0223 0.225505,-0.0481 0.33693,-0.076 0.111425,-0.0279 0.221883,-0.0585 0.331763,-0.092 0.110032,-0.0334 0.219453,-0.069 0.327628,-0.10801 0.108176,-0.0385 0.215109,-0.0799 0.321428,-0.12402 0.106318,-0.0441 0.211229,-0.0903 0.315226,-0.13952 0.103996,-0.0492 0.206786,-0.10071 0.307996,-0.15503 0.10121,-0.0539 0.2013,-0.11059 0.29972,-0.17002 0.0984,-0.059 0.19582,-0.12041 0.29146,-0.18448 0.0956,-0.0636 0.18924,-0.12968 0.28163,-0.19793 0.0924,-0.0687 0.18268,-0.13949 0.27182,-0.21239 0.0887,-0.0729 0.17555,-0.14824 0.26097,-0.2253 0.085,-0.0771 0.16835,-0.15647 0.2496,-0.23772 0.0817,-0.0812 0.16069,-0.16417 0.23822,-0.24959 0.0771,-0.085 0.15139,-0.17229 0.22428,-0.26097 0.0734,-0.0887 0.14414,-0.17943 0.21239,-0.27182 0.0687,-0.0924 0.13488,-0.18599 0.19895,-0.28163 0.0638,-0.0956 0.12486,-0.19252 0.18397,-0.29094 0.059,-0.0989 0.1157,-0.19908 0.17002,-0.30076 0.0543,-0.10121 0.10581,-0.20348 0.15503,-0.30747 0.0492,-0.10354 0.0959,-0.20886 0.14004,-0.31471 0.0436,-0.10632 0.0845,-0.21377 0.12351,-0.32195 0.0385,-0.10817 0.0751,-0.21708 0.10852,-0.32711 0.0334,-0.11003 0.0641,-0.22137 0.092,-0.3328 0.0279,-0.11142 0.0526,-0.22307 0.0749,-0.33589 0.0226,-0.11267 0.0422,-0.22613 0.0589,-0.34003 0.0172,-0.11375 0.0312,-0.22743 0.0424,-0.3421 0.0111,-0.11421 0.0198,-0.22897 0.0253,-0.34365 0.006,-0.11467 0.009,-0.22949 0.009,-0.34416 0,-0.11514 -0.003,-0.23001 -0.009,-0.34469 -0.006,-0.11514 -0.0142,-0.22995 -0.0253,-0.34416 -0.0111,-0.11421 -0.0252,-0.22835 -0.0424,-0.3421 -0.0167,-0.11375 -0.0362,-0.22716 -0.0589,-0.33951 -0.0223,-0.11282 -0.0471,-0.22499 -0.0749,-0.33642 -0.0279,-0.11142 -0.0586,-0.22173 -0.092,-0.33176 -0.0334,-0.11003 -0.07,-0.21945 -0.10852,-0.32763 -0.039,-0.10817 -0.0799,-0.21511 -0.12351,-0.32143 -0.0441,-0.10631 -0.0908,-0.21123 -0.14004,-0.31522 -0.0492,-0.104 -0.10071,-0.20678 -0.15503,-0.30799 -0.0543,-0.10121 -0.11106,-0.2013 -0.17002,-0.29973 -0.059,-0.0984 -0.12036,-0.19581 -0.18397,-0.29145 -0.0641,-0.0956 -0.13024,-0.18925 -0.19895,-0.28164 -0.0682,-0.0924 -0.13904,-0.18314 -0.21239,-0.27182 -0.0729,-0.0891 -0.14721,-0.17554 -0.22428,-0.26096 -0.0775,-0.085 -0.15651,-0.16835 -0.23822,-0.2496 -0.0813,-0.0812 -0.16464,-0.16064 -0.2496,-0.23771 -0.0854,-0.0775 -0.17229,-0.15242 -0.26097,-0.22531 -0.0891,-0.0729 -0.17943,-0.14363 -0.27182,-0.21187 -0.0924,-0.0687 -0.18599,-0.13489 -0.28163,-0.19896 -0.0956,-0.0636 -0.19303,-0.125 -0.29146,-0.18397 -0.0984,-0.059 -0.19851,-0.11569 -0.29972,-0.17001 -0.10121,-0.0543 -0.204,-0.10582 -0.307996,-0.15503 -0.103997,-0.0492 -0.208908,-0.0959 -0.315226,-0.14004 -0.106319,-0.0436 -0.213252,-0.085 -0.321428,-0.12403 -0.108022,-0.0387 -0.217442,-0.0746 -0.327628,-0.108 -0.110033,-0.0334 -0.220338,-0.0641 -0.331763,-0.092 -0.111425,-0.0279 -0.224112,-0.0526 -0.33693,-0.0749 -0.112354,-0.0228 -0.225251,-0.0422 -0.338998,-0.0589 -0.113746,-0.0172 -0.227887,-0.0312 -0.342098,-0.0424 -0.114211,-0.0111 -0.228973,-0.0203 -0.343648,-0.0258 -0.115139,-0.006 -0.23006,-0.008 -0.345198,-0.008 -0.114676,0 -0.22949,0.003 -0.344166,0.008 -0.114674,0.006 -0.229437,0.0147 -0.343648,0.0258 -0.114675,0.0111 -0.228351,0.0252 -0.342098,0.0424 -0.113746,0.0167 -0.227213,0.0362 -0.340031,0.0589 -0.112818,0.0223 -0.224988,0.0471 -0.336413,0.0749 -0.111426,0.0279 -0.222247,0.0586 -0.33228,0.092 -0.110032,0.0334 -0.218936,0.0695 -0.327112,0.108 -0.108174,0.039 -0.215573,0.0804 -0.321427,0.12403 -0.106318,0.0441 -0.211229,0.0908 -0.315226,0.14004 -0.103997,0.0492 -0.20678,0.10071 -0.307992,0.15503 -0.101675,0.0543 -0.201297,0.11105 -0.299723,0.17001 -0.09889,0.059 -0.195815,0.12037 -0.291455,0.18397 -0.09564,0.0641 -0.189246,0.13024 -0.281637,0.19896 -0.09224,0.0684 -0.182988,0.13883 -0.271818,0.21187 -0.08868,0.0729 -0.176004,0.14778 -0.260966,0.22531 -0.08543,0.0771 -0.168349,0.15646 -0.249597,0.23771 -0.08124,0.0813 -0.160643,0.16464 -0.237711,0.2496 -0.07707,0.0854 -0.152419,0.17182 -0.22531,0.26096 -0.07289,0.0887 -0.143678,0.17944 -0.21239,0.27182 -0.06825,0.0924 -0.134315,0.186 -0.197921,0.28164 -0.06407,0.0956 -0.125522,0.19303 -0.184484,0.29145 -0.05943,0.0984 -0.11616,0.19852 -0.170016,0.29973 -0.05432,0.10121 -0.105816,0.20399 -0.155029,0.30799 -0.04921,0.10399 -0.09542,0.20891 -0.139527,0.31522 -0.0441,0.10632 -0.08549,0.21326 -0.124023,0.32143 -0.039,0.10818 -0.07458,0.2176 -0.108004,0.32763 -0.03343,0.11003 -0.06413,0.22034 -0.09198,0.33176 -0.02786,0.11143 -0.05368,0.2236 -0.07596,0.33642 -0.02229,0.11235 -0.04174,0.22576 -0.05891,0.33951 -0.01671,0.11375 -0.03077,0.22789 -0.04237,0.3421 -0.01114,0.11421 -0.01923,0.22902 -0.02481,0.34416 -0.0056,0.11468 -0.0088,0.22955 -0.0088,0.34469 0,0.11467 0.0033,0.22949 0.0088,0.34416 0.0056,0.11468 0.01366,0.22944 0.02481,0.34365 0.01161,0.11467 0.02566,0.22835 0.04237,0.3421 0.01718,0.11374 0.03663,0.22721 0.05891,0.34003 0.02228,0.11282 0.04811,0.22447 0.07596,0.33589 0.02786,0.11143 0.05856,0.22277 0.09198,0.3328 0.03343,0.11003 0.06901,0.21894 0.108004,0.32711 0.03854,0.10818 0.07992,0.21563 0.124023,0.32195 0.04411,0.10585 0.09031,0.21117 0.139527,0.31471 0.01523,0.0322 0.03236,0.0632 0.04806,0.0951 l -4.472079,4.51497 c -1.527843,-2.15107 -2.427242,-4.77759 -2.427242,-7.61245 0,-0.38395 0.01731,-0.76374 0.04961,-1.13947 l -4.63796,-1.22938 -6.122107,-5.2e-4 c 0.444046,-4.51256 2.138329,-8.66343 4.735498,-12.0974 0.32183,-0.42552 0.292181,-1.06451 -0.0851,-1.44179 l -0.252603,-0.2526 a 1.6924519,1.6924519 22.50002 0 0 -1.196745,-0.49571 l -1.085417,0 z m -6.016171,6.057 c -0.838844,0 -1.514119,0.67527 -1.514119,1.51412 0,0.83883 0.675275,1.51411 1.514119,1.51411 h 3.894853 c 0.838845,0 1.514636,-0.67528 1.514636,-1.51411 0,-0.83885 -0.675791,-1.51412 -1.514636,-1.51412 z m -2.764172,6.05647 c -0.838847,0 -1.514119,0.67528 -1.514119,1.51412 0,0.83885 0.675272,1.51412 1.514119,1.51412 h 1.539441 c 0.838846,0 1.514119,-0.67527 1.514119,-1.51412 0,-0.83884 -0.675273,-1.51412 -1.514119,-1.51412 z m -0.720369,12.11348 c -0.838848,0 -1.51412,0.67527 -1.51412,1.51412 0,0.83883 0.675272,1.51411 1.51412,1.51411 h 2.865974 1.275892 c 0.838846,0 1.514636,-0.67528 1.514636,-1.51411 0,-0.83885 -0.67579,-1.51412 -1.514636,-1.51412 z m 3.892785,12.11295 c -0.838846,0 -1.514119,0.67527 -1.514119,1.51412 0,0.83885 0.675273,1.51412 1.514119,1.51412 h 3.053561 c 0.838846,0 1.514119,-0.67527 1.514119,-1.51412 0,-0.83885 -0.675273,-1.51412 -1.514119,-1.51412 z m 7.664649,0 c -0.838848,0 -1.514637,0.67527 -1.514637,1.51412 0,0.83885 0.675789,1.51412 1.514637,1.51412 h 1.220597 c 0.838846,0 1.514119,-0.67527 1.514119,-1.51412 0,-0.83885 -0.675273,-1.51412 -1.514119,-1.51412 z m 1.032495,6.057 c -0.838847,0 -1.51412,0.67527 -1.51412,1.51412 0,0.83883 0.675273,1.51412 1.51412,1.51412 h 2.742985 c 0.838846,0 1.514119,-0.67529 1.514119,-1.51412 0,-0.83885 -0.675273,-1.51412 -1.514119,-1.51412 z"
         transform="matrix(0,2.1539067,-2.1539067,0,424.16527,26.375241)" /></g></g></svg>
